<svg width="186" height="36" viewBox="0 0 186 36" fill="none" xmlns="http://www.w3.org/2000/svg">
<path fill-rule="evenodd" clip-rule="evenodd" d="M2.19773 24.1316H7.65869C11.7165 24.1316 13.3949 21.7086 13.3333 19.3473C13.3028 16.8003 11.3203 14.222 7.78078 14.222H2.19773V24.1316ZM2.19721 26.1506V31.1521C2.19721 32.5809 0 32.5499 0 31.1829L0.0002826 13.2904C0.0002826 12.6385 0.518853 12.2031 1.12899 12.2031H7.74974C13.0287 12.2031 15.4995 15.7755 15.4995 19.3476C15.4995 23.0757 12.9973 26.1506 7.65818 26.1506H2.19721Z" fill="#695E50"/>
<path fill-rule="evenodd" clip-rule="evenodd" d="M19.3093 23.107H25.4731C29.4696 23.107 31.2084 21.212 31.1477 18.8823C31.1172 16.3354 29.0121 14.285 25.4731 14.285H19.3093V23.107ZM19.3112 25.0636V31.0899C19.3112 32.5188 17.084 32.5188 17.084 31.1207L17.0843 13.2904C17.0843 12.6385 17.5421 12.2031 18.2133 12.2031H25.4439C30.7223 12.2031 33.407 15.2475 33.407 18.8818C33.407 22.0194 31.7292 24.2873 27.9762 24.9393L32.9189 30.3752C34.0781 31.5558 32.4003 32.9225 31.3934 31.8665L25.2308 25.0636H19.3112Z" fill="#695E50"/>
<path fill-rule="evenodd" clip-rule="evenodd" d="M64.1856 29.9709H70.0431C74.6198 29.9709 76.9089 26.0259 76.9089 22.1123C76.9089 18.1978 74.6198 14.222 70.0431 14.222H64.1856V29.9709ZM63.3926 31.9904C62.6299 31.9904 61.9893 31.3695 61.9893 30.655V13.5392C61.9893 12.8247 62.6299 12.2346 63.3926 12.2346H70.0434C76.1153 12.2346 79.1357 17.1734 79.1357 22.1125C79.1357 27.0516 76.1153 31.9904 70.0434 31.9904H63.3926Z" fill="#695E50"/>
<path fill-rule="evenodd" clip-rule="evenodd" d="M96.677 13.0427C96.677 11.5206 98.9652 11.5206 98.9652 13.0116V23.2313C98.9652 29.1955 94.419 32.2086 89.9647 32.2086C85.5098 32.2086 80.9639 29.1955 80.9639 23.2313L80.9644 13.0116C80.9644 11.6446 83.2524 11.6446 83.2524 13.0427V23.2313C83.2524 32.2086 96.6764 32.2086 96.677 23.2313V13.0427Z" fill="#695E50"/>
<path fill-rule="evenodd" clip-rule="evenodd" d="M115.102 31.2148C113.637 31.8982 111.99 32.3329 110.526 32.3329C105.309 32.3329 100.61 27.9843 100.61 21.833C100.61 16.7388 104.18 12.7006 108.879 11.9554C112.448 11.4585 115.56 12.3594 117.971 14.9377C118.886 15.9936 117.239 17.2671 116.384 16.3355C114.31 14.0987 111.899 13.7569 109.214 14.0679C105.461 14.6586 102.807 17.3603 102.807 21.8647C102.807 26.5862 106.377 30.1897 110.587 30.1897C111.716 30.1897 112.967 29.8792 114.126 29.2891C115.072 28.7919 115.987 28.0461 116.628 27.2077C117.33 26.1512 119.191 27.3009 118.397 28.4501C117.574 29.6303 116.414 30.5623 115.102 31.2148Z" fill="#695E50"/>
<path fill-rule="evenodd" clip-rule="evenodd" d="M122.758 29.9406H134.81C136.091 29.9406 136.274 31.9904 134.81 31.9904H121.965C121.111 31.9904 120.562 31.3695 120.562 30.6234V13.5702C120.562 12.8555 121.111 12.2346 121.965 12.2346H134.84C136.152 12.2346 136.091 14.2222 134.81 14.2222H122.758V21.2113H134.23C135.451 21.2113 135.511 23.1995 134.23 23.1995H122.758V29.9406Z" fill="#695E50"/>
<path fill-rule="evenodd" clip-rule="evenodd" d="M140.727 24.1316H146.188C150.246 24.1316 151.925 21.7086 151.863 19.3473C151.833 16.8003 149.85 14.222 146.311 14.222H140.728L140.727 24.1316ZM140.727 26.1506V31.1521C140.727 32.5809 138.53 32.5499 138.53 31.1829V13.2904C138.53 12.6385 139.049 12.2031 139.659 12.2031H146.28C151.558 12.2031 154.029 15.7755 154.029 19.3476C154.029 23.0757 151.527 26.1506 146.188 26.1506H140.727Z" fill="#65A73F"/>
<path fill-rule="evenodd" clip-rule="evenodd" d="M161.747 15.0299L156.927 24.8146H166.537L161.747 15.0299ZM156.01 26.7721L153.539 31.6798C152.99 32.829 150.976 32.0219 151.526 30.7789L160.739 12.2967C160.923 11.8924 161.35 11.7065 161.746 11.7065C162.143 11.7065 162.51 11.8924 162.723 12.2967L171.907 30.686C172.7 32.0219 170.442 32.7985 169.862 31.5869L167.482 26.7721H156.01Z" fill="#65A73F"/>
<path fill-rule="evenodd" clip-rule="evenodd" d="M175.841 24.0073L168.122 13.6011C167.207 12.3587 169.221 11.209 170.044 12.4517L176.94 22.0505L183.926 12.4209C184.689 11.2401 186.58 12.2347 185.757 13.5393L178.099 24.0073V30.9656C178.099 31.7422 177.488 32.1148 176.97 32.1148C176.36 32.1148 175.841 31.7422 175.841 30.9656V24.0073Z" fill="#65A73F"/>
<path fill-rule="evenodd" clip-rule="evenodd" d="M59.4807 22.113C59.4807 28.8924 54.0831 34.3882 47.4244 34.3882C40.7661 34.3882 35.3682 28.8924 35.3682 22.113C35.3682 15.334 40.7661 9.83813 47.4244 9.83813C54.0831 9.83813 59.4807 15.334 59.4807 22.113Z" fill="#FFFFFE"/>
<path fill-rule="evenodd" clip-rule="evenodd" d="M38.5208 26.617C37.8603 25.2587 37.4873 23.732 37.4873 22.1164C37.4873 16.5064 41.9696 11.9419 47.4792 11.9419C51.2075 11.9419 54.4636 14.0342 56.1807 17.1244C54.9785 16.7995 53.719 16.622 52.4196 16.622C46.0159 16.622 40.5563 20.7992 38.5208 26.617Z" fill="#E3672A"/>
<path fill-rule="evenodd" clip-rule="evenodd" d="M45.858 33.8941C47.8698 33.8941 49.447 33.1411 49.447 32.1784H49.8828C49.8828 32.8152 50.574 33.3584 51.6225 33.6544C53.7959 32.8471 55.6752 31.42 57.0591 29.5852V25.7204C57.0591 24.7574 55.4828 24.0033 53.4704 24.0033H53.2531V20.5526C53.2531 19.5905 51.6767 18.8369 49.6646 18.8369C47.6528 18.8369 46.0759 19.5905 46.0759 20.5526V27.2336H45.8585C43.8462 27.2336 42.2695 27.9871 42.2695 28.949V32.1787C42.2695 33.1411 43.8462 33.8941 45.858 33.8941Z" fill="#FBD020"/>
<path fill-rule="evenodd" clip-rule="evenodd" d="M55.3793 29.9685C54.8559 30.14 54.2017 30.252 53.4706 30.252C51.6558 30.252 50.2981 29.5698 50.2981 28.9606L50.2987 28.4459C50.9693 28.9581 52.1161 29.2832 53.4706 29.2832C54.783 29.2832 55.8959 28.9765 56.5733 28.4919C56.2166 29.0185 55.8168 29.5122 55.3793 29.9685ZM50.2981 32.1888V31.6746C50.7085 31.9882 51.298 32.2299 52.0028 32.3715C51.6103 32.551 51.207 32.7107 50.7918 32.8434C50.4782 32.6397 50.2981 32.41 50.2981 32.1888ZM45.8582 30.8983C47.2116 30.8983 48.36 30.5737 49.0301 30.0607V30.5755C49.0301 31.1852 47.673 31.8668 45.8582 31.8668C44.0428 31.8676 42.686 31.1852 42.686 30.5755V30.0607C43.3566 30.5737 44.5045 30.8983 45.8582 30.8983ZM49.0301 28.9607C49.0301 29.5698 47.673 30.252 45.8582 30.252C44.0428 30.252 42.686 29.5704 42.686 28.9607C42.686 28.351 44.0433 27.6688 45.8588 27.6688C47.673 27.6688 49.0301 28.351 49.0301 28.9607ZM49.6654 27.3449V28.9602C49.6654 27.9664 48.3386 27.1942 46.4935 27.0494V26.5077C47.1641 27.0198 48.3103 27.3449 49.6654 27.3449ZM49.6654 25.7306V26.6997C47.8491 26.6997 46.4935 26.0175 46.4935 25.4078V24.8931C47.1641 25.4061 48.3103 25.7306 49.6654 25.7306ZM49.6654 24.1168C51.0196 24.1168 52.1664 23.7917 52.8364 23.2787V23.8205C51.4212 23.9313 50.3139 24.4121 49.8742 25.079C49.805 25.0816 49.7349 25.0856 49.6654 25.0856C47.8491 25.0856 46.4935 24.4037 46.4935 23.7934V23.2787C47.1641 23.7917 48.3103 24.1168 49.6654 24.1168ZM46.4935 20.5634C46.4935 19.9537 47.8491 19.2715 49.6654 19.2715C51.4802 19.2715 52.8364 19.9537 52.8364 20.5634C52.8364 21.1725 51.4802 21.8544 49.6654 21.8544C47.8491 21.8544 46.4935 21.1725 46.4935 20.5634ZM49.6654 22.5004C51.0196 22.5004 52.1664 22.1764 52.8364 21.6634V22.1776C52.8364 22.7878 51.4802 23.4698 49.6654 23.4698C47.8491 23.4698 46.4935 22.7878 46.4935 22.1776V21.6634C47.1641 22.1764 48.3103 22.5004 49.6654 22.5004ZM56.6421 26.8306V27.3451C56.6421 27.955 55.2859 28.637 53.4705 28.637C51.6557 28.637 50.2986 27.955 50.2986 27.3451V26.8309C50.9692 27.3431 52.116 27.6685 53.4705 27.6685C54.8256 27.6685 55.9726 27.3431 56.6421 26.8306ZM53.4705 27.0231C51.6562 27.0231 50.2986 26.3406 50.2986 25.7306C50.2986 25.1212 51.6562 24.4387 53.4705 24.4387C55.2859 24.4387 56.6421 25.1212 56.6421 25.7306C56.6421 26.3406 55.2859 27.0231 53.4705 27.0231ZM42.686 32.1894V31.6746C43.3566 32.1876 44.5045 32.5125 45.8582 32.5125C47.2116 32.5125 48.36 32.1876 49.0301 31.6746V32.1888C49.0301 32.6379 48.2945 33.1248 47.1839 33.3512C45.579 33.308 44.0583 32.9196 42.6945 32.2509C42.6917 32.2305 42.686 32.2098 42.686 32.1894ZM53.0038 31.8498C51.4288 31.7454 50.2981 31.1316 50.2981 30.5755V30.0607C50.9693 30.5737 52.1161 30.8983 53.4706 30.8983C53.8094 30.8983 54.1356 30.8779 54.4442 30.8396C53.9926 31.2139 53.5107 31.5511 53.0038 31.8498ZM36.4362 22.1156C36.4362 15.9065 41.38 10.8719 47.4785 10.8719C53.5775 10.8719 58.5211 15.9065 58.5211 22.1156C58.5211 23.9861 58.07 25.7481 57.2765 27.2995V25.7303C57.2765 24.6263 55.6397 23.7925 53.4699 23.7925V20.5628C53.4699 19.4585 51.8333 18.6258 49.6641 18.6258C47.494 18.6258 45.858 19.4585 45.858 20.5633V27.0228C43.686 27.0228 42.0511 27.8554 42.0511 28.9603V31.9057C38.6998 29.9757 36.4359 26.3158 36.4362 22.1156ZM46.7792 8.95742C39.9663 9.32888 34.5361 15.088 34.5361 22.1154C34.5361 29.3816 40.3416 35.2926 47.4784 35.2926C54.6151 35.2926 60.4206 29.3816 60.4206 22.1154C60.4206 15.1176 55.0351 9.37837 48.262 8.96433C48.2273 8.0954 47.7946 7.2797 47.0237 6.82538C46.975 6.79632 46.9242 6.77417 46.8716 6.75806C46.5181 6.97759 46.1985 7.24258 45.9037 7.54124C45.9229 7.78236 46.0526 8.01282 46.2688 8.14057C46.2688 8.14057 46.3121 8.1633 46.4469 8.2758C46.4469 8.2758 46.7213 8.47462 46.7792 8.95742Z" fill="#695E50"/>
<path fill-rule="evenodd" clip-rule="evenodd" d="M55.7707 7.35654C54.5386 8.13369 53.1075 8.59117 51.6544 8.60527C51.1548 8.60958 50.6534 8.53823 50.1623 8.44213C49.228 8.25942 49.0143 8.00997 49.0143 8.00997C56.6219 5.03835 58.1381 0.730533 58.1381 0.730533C55.4418 5.23831 49.4224 6.92208 48.5379 7.20635C48.5379 7.20635 48.4607 6.97272 48.4254 6.76124L48.4209 6.72528C47.9391 3.9004 51.3235 1.72606 55.2109 1.28814C55.9787 1.23607 57.0147 0.889069 57.7015 0.513301C57.7015 0.513301 58.2811 0.215793 58.5252 0C58.5252 0 58.8638 1.3172 58.5724 2.93565C58.5724 2.93565 58.2367 5.81722 55.7818 7.35021" fill="#65A73F"/>
</svg>
